<?xml version="1.0" encoding="utf-8"?>
<!-- Generator: Adobe Illustrator 24.3.0, SVG Export Plug-In . SVG Version: 6.00 Build 0)  -->
<svg version="1.1" id="Ebene_1" xmlns="http://www.w3.org/2000/svg" xmlns:xlink="http://www.w3.org/1999/xlink" x="0px" y="0px"
	 viewBox="0 0 24 28.8" style="enable-background:new 0 0 24 28.8;" xml:space="preserve">
<path d="M3.4,7.9H15c5,0,9,4,9,9c0,5-4,9-9,9H3c-0.6,0-1-0.4-1-1s0.4-1,1-1h12c3.9,0,7-3.1,7-7c0-3.9-3.1-7-7-7H3.4l3.3,3.3
	c0.4,0.4,0.4,1,0,1.4c-0.4,0.4-1,0.4-1.4,0l-5-5c-0.4-0.4-0.4-1,0-1.4l5-5c0.4-0.4,1-0.4,1.4,0c0.4,0.4,0.4,1,0,1.4L3.4,7.9z"/>
</svg>
